<svg width="60" height="60" viewBox="0 0 60 60" fill="none" xmlns="http://www.w3.org/2000/svg">
    <path d="M59.4715 11.9207L41.2747 30.0002L59.4715 48.0798C59.8004 47.3923 60 46.6322 60 45.8205V14.1799C60 13.3682 59.8004 12.6082 59.4715 11.9207Z" fill="#936EBD"/>
    <path d="M54.7265 8.90649H5.27342C4.46166 8.90649 3.7017 9.10606 3.01416 9.43501L26.2715 32.5752C28.3279 34.6316 31.672 34.6316 33.7284 32.5752L56.9858 9.43501C56.2982 9.10606 55.5383 8.90649 54.7265 8.90649Z" fill="#936EBD"/>
    <path d="M0.528516 11.9207C0.19957 12.6082 0 13.3682 0 14.1799V45.8205C0 46.6323 0.19957 47.3924 0.528516 48.0798L18.7253 30.0002L0.528516 11.9207Z" fill="#936EBD"/>
    <path d="M38.789 32.4858L36.2141 35.0608C32.7876 38.4872 27.2122 38.4872 23.7858 35.0608L21.2109 32.4858L3.01416 50.5654C3.7017 50.8944 4.46166 51.0939 5.27342 51.0939H54.7265C55.5383 51.0939 56.2982 50.8944 56.9858 50.5654L38.789 32.4858Z" fill="#936EBD"/>
</svg>
