<svg width="60" height="60" viewBox="0 0 60 60" fill="none" xmlns="http://www.w3.org/2000/svg">
    <path d="M58.304 44.0342L49.9308 35.661C46.9404 32.6706 41.8566 33.8669 40.6605 37.7543C39.7634 40.4458 36.7729 41.941 34.0816 41.3428C28.1007 39.8476 20.0266 32.0725 18.5314 25.7926C17.6342 23.1011 19.4285 20.1107 22.1199 19.2137C26.0074 18.0175 27.2036 12.9338 24.2132 9.9434L15.84 1.57022C13.4476 -0.52308 9.85914 -0.52308 7.76585 1.57022L2.08405 7.25202C-3.59775 13.2329 2.68213 29.0821 16.7371 43.1371C30.7921 57.1921 46.6413 63.7711 52.6222 57.7901L58.304 52.1083C60.3974 49.716 60.3974 46.1275 58.304 44.0342Z" fill="#936EBD"/>
</svg>
